<svg xmlns="http://www.w3.org/2000/svg" style="display: none;">
  <defs>
    <!-- Phone Icon -->
    <symbol id="icon-phone" viewBox="0 0 24 24">
      <path fill="currentColor" d="M6.62 10.79c1.44 2.83 3.76 5.14 6.59 6.59l2.2-2.2c.27-.27.67-.36 1.02-.24 1.12.37 2.33.57 3.57.57.55 0 1 .45 1 1V20c0 .55-.45 1-1 1-9.39 0-17-7.61-17-17 0-.55.45-1 1-1h3.5c.55 0 1 .45 1 1 0 1.25.2 2.45.57 3.57.11.35.03.74-.25 1.02l-2.2 2.2z"/>
    </symbol>
    
    <!-- Calendar Icon -->
    <symbol id="icon-calendar" viewBox="0 0 24 24">
      <path fill="currentColor" d="M19 3h-1V1h-2v2H8V1H6v2H5c-1.11 0-1.99.9-1.99 2L3 19c0 1.1.89 2 2 2h14c1.1 0 2-.9 2-2V5c0-1.1-.9-2-2-2zm0 16H5V8h14v11zM7 10h5v5H7z"/>
    </symbol>
    
    <!-- Message Icon -->
    <symbol id="icon-message" viewBox="0 0 24 24">
      <path fill="currentColor" d="M20 2H4c-1.1 0-1.99.9-1.99 2L2 22l4-4h14c1.1 0 2-.9 2-2V4c0-1.1-.9-2-2-2zm-2 12H6v-2h12v2zm0-3H6V9h12v2zm0-3H6V6h12v2z"/>
    </symbol>
    
    <!-- Dashboard Icon -->
    <symbol id="icon-dashboard" viewBox="0 0 24 24">
      <path fill="currentColor" d="M3 13h8V3H3v10zm0 8h8v-6H3v6zm10 0h8V11h-8v10zm0-18v6h8V3h-8z"/>
    </symbol>
    
    <!-- Check Icon -->
    <symbol id="icon-check" viewBox="0 0 24 24">
      <path fill="currentColor" d="M9 16.17L4.83 12l-1.42 1.41L9 19 21 7l-1.41-1.41z"/>
    </symbol>
    
    <!-- Settings Icon -->
    <symbol id="icon-settings" viewBox="0 0 24 24">
      <path fill="currentColor" d="M19.14,12.94c0.04-0.3,0.06-0.61,0.06-0.94c0-0.32-0.02-0.64-0.07-0.94l2.03-1.58c0.18-0.14,0.23-0.41,0.12-0.61 l-1.92-3.32c-0.12-0.22-0.37-0.29-0.59-0.22l-2.39,0.96c-0.5-0.38-1.03-0.7-1.62-0.94L14.4,2.81c-0.04-0.24-0.24-0.41-0.48-0.41 h-3.84c-0.24,0-0.43,0.17-0.47,0.41L9.25,5.35C8.66,5.59,8.12,5.92,7.63,6.29L5.24,5.33c-0.22-0.08-0.47,0-0.59,0.22L2.74,8.87 C2.62,9.08,2.66,9.34,2.86,9.48l2.03,1.58C4.84,11.36,4.8,11.69,4.8,12s0.02,0.64,0.07,0.94l-2.03,1.58 c-0.18,0.14-0.23,0.41-0.12,0.61l1.92,3.32c0.12,0.22,0.37,0.29,0.59,0.22l2.39-0.96c0.5,0.38,1.03,0.7,1.62,0.94l0.36,2.54 c0.05,0.24,0.24,0.41,0.48,0.41h3.84c0.24,0,0.44-0.17,0.47-0.41l0.36-2.54c0.59-0.24,1.13-0.56,1.62-0.94l2.39,0.96 c0.22,0.08,0.47,0,0.59-0.22l1.92-3.32c0.12-0.22,0.07-0.47-0.12-0.61L19.14,12.94z M12,15.6c-1.98,0-3.6-1.62-3.6-3.6 s1.62-3.6,3.6-3.6s3.6,1.62,3.6,3.6S13.98,15.6,12,15.6z"/>
    </symbol>
    
    <!-- User Icon -->
    <symbol id="icon-user" viewBox="0 0 24 24">
      <path fill="currentColor" d="M12 12c2.21 0 4-1.79 4-4s-1.79-4-4-4-4 1.79-4 4 1.79 4 4 4zm0 2c-2.67 0-8 1.34-8 4v2h16v-2c0-2.66-5.33-4-8-4z"/>
    </symbol>
    
    <!-- Arrow Right Icon -->
    <symbol id="icon-arrow-right" viewBox="0 0 24 24">
      <path fill="currentColor" d="M10 6L8.59 7.41 13.17 12l-4.58 4.59L10 18l6-6z"/>
    </symbol>
    
    <!-- Call Icon (legacy) -->
    <symbol id="ic-call" viewBox="0 0 24 24">
      <path fill="currentColor" d="M6.6 10.8c1.6 3 3.6 5 6.6 6.6l2.2-2.2c.3-.3.8-.4 1.2-.3 1 .3 2 .5 3 .5.7 0 1.2.6 1.2 1.2v3.5c0 .7-.6 1.2-1.2 1.2C9.8 21.5 2.5 14.2 2.5 4.4c0-.7.6-1.2 1.2-1.2H7c.7 0 1.2.6 1.2 1.2 0 1 .2 2 .5 3 .1.4 0 .9-.3 1.2L6.6 10.8z"/>
    </symbol>
    
    <!-- Book Icon (legacy) -->
    <symbol id="ic-book" viewBox="0 0 24 24">
      <path fill="currentColor" d="M4 5a2 2 0 0 1 2-2h13v17H6a2 2 0 0 1-2-2V5zm4 2h9v2H8V7zm0 4h9v2H8v-2z"/>
    </symbol>
    
    <!-- CRM Icon (legacy) -->
    <symbol id="ic-crm" viewBox="0 0 24 24">
      <path fill="currentColor" d="M12 12a5 5 0 1 0-5-5 5 5 0 0 0 5 5zm0 2c-4 0-8 2-8 5v2h16v-2c0-3-4-5-8-5z"/>
    </symbol>
    
    <!-- Compliance Icon (legacy) -->
    <symbol id="ic-compliance" viewBox="0 0 24 24">
      <path fill="currentColor" d="M12 2l8 4v6c0 5-3.5 9.7-8 10-4.5-.3-8-5-8-10V6l8-4zm0 4l-4 2v4c0 3.3 2 6.8 4 7 2-.2 4-3.7 4-7V8l-4-2z"/>
    </symbol>
    
    <!-- Analytics Icon (legacy) -->
    <symbol id="ic-analytics" viewBox="0 0 24 24">
      <path fill="currentColor" d="M4 20h16v2H4v-2zm2-8h3v6H6v-6zm5-4h3v10h-3V8zm5 2h3v8h-3v-8z"/>
    </symbol>
  </defs>
</svg>